<?xml version="1.0" encoding="utf-8"?>
<!-- Generator: Adobe Illustrator 22.0.1, SVG Export Plug-In . SVG Version: 6.00 Build 0)  -->
<svg version="1.1" id="Layer_1" xmlns="http://www.w3.org/2000/svg" xmlns:xlink="http://www.w3.org/1999/xlink" x="0px" y="0px"
	 viewBox="0 0 902.8 548.4" style="enable-background:new 0 0 902.8 548.4;" xml:space="preserve">
<g>
	<path d="M340.3,311.6c8.2-35.2,44.5-135.3,20.9-192.1c-20.3-48.9-87.1-88.6-163.8-64.9C110.3,81.4,42.8,184.7,39,248.5
		c-4.3,71.7,35.9,128,84.3,134.9c89.6,12.9,116.6-28.9,132.3-39.2s-10.9,25.2,23.1,54.1c21.5,18.2,81.1,29.3,94.9,18.8
		C373.6,417.2,320.1,398.9,340.3,311.6z M264.5,244.4c-44,64.8-99.5,92.6-136.4,59.7c-31.1-27.7-9-87.7,15.1-122.5
		c37.9-54.6,95-81.7,133.5-54.1C318,157.1,291.7,204.4,264.5,244.4z"/>
	<path d="M644.9,321.9c0.1-4.1,0.5-10.8,0.8-18.9c0.6-7.2,0.8-14.6,0.8-22.2c0.2-10.1,0.1-20.7-0.5-30.8c-0.1-3-0.1-5.9-0.1-8.8
		c-0.2-39.5-33-58.5-52.9-55.7c-21,2.9-40.8,12.8-54,28.3c-11.2-11.6-26.2-16.7-37-14.6c-47.2,9.2-49,40.2-58.8,39.2
		c-8.2-0.8,6.3-28.6,10.8-41.4c5.7-16-13-42.6-40.5-24.4c-16.2,10.7-22.2,30.9-23.6,47.6c-3,35.9-8.4,78.1-8.5,110.5
		c-0.2,32.4,12.5,55.8,41.3,52.4c28.1-3.3,32.9-43.4,35.9-57c3-13.6,10.4-58.2,25.9-62.6c15.5-4.4,5.8,51.7,4.5,76.2
		c-1.4,24.5,13.4,37.1,29.6,35c42.5-5.8,31.3-126.4,56.9-124.9c16.1,0.9-2.2,93.1,29.1,119.7c31,26.4,63.3,10.6,69.3,3.7
		C673.9,373.1,644,369.6,644.9,321.9z"/>
	<path d="M599.8,418.7c-21.2-17.2-39.4-43.6-39.4-43.6c-1.3-2-13.5,16.4-8.7,39.7c6.1,29.6,31.1,73,87.5,83.3
		c54.2,10,105.6-6.7,142.4-45.3c22.8-23.9,43.8-48.2,53.4-83c9.5-34.8-2.7-80,24-127c16-28.2-8.1-56.6-37-55.5
		c-28.3,1-36.2,40.7-40.3,54c-4.1,13.3-15,57.2-30.8,60.3c-15.8,3.1-1.7-52,1.6-76.3s-10.6-39.8-26.7-37.2
		c-44.6,7.2-42.6,77.2-45.8,116.6s28.4,62,48.4,59.7c47.7-5.4,52-36.2,61.7-34.5c8.1,1.4-28.8,90.6-90,107.6
		C659.1,448.9,628,441.6,599.8,418.7z"/>
</g>
</svg>
